<svg width="40" height="24" viewBox="0 0 40 24" fill="none" xmlns="http://www.w3.org/2000/svg">
<path d="M2.00024 10.4995C1.17182 10.4995 0.500244 11.1711 0.500244 11.9995C0.500244 12.8279 1.17182 13.4995 2.00024 13.4995L2.00024 10.4995ZM39.0609 13.0602C39.6467 12.4744 39.6467 11.5246 39.0609 10.9388L29.515 1.39291C28.9292 0.807121 27.9794 0.807121 27.3936 1.39291C26.8079 1.97869 26.8079 2.92844 27.3936 3.51423L35.8789 11.9995L27.3936 20.4848C26.8079 21.0706 26.8079 22.0203 27.3936 22.6061C27.9794 23.1919 28.9292 23.1919 29.515 22.6061L39.0609 13.0602ZM2.00024 13.4995L38.0002 13.4995L38.0002 10.4995L2.00024 10.4995L2.00024 13.4995Z" fill="white"/>
</svg>
