<svg width="154" height="56" viewBox="0 0 154 56" fill="none" xmlns="http://www.w3.org/2000/svg">
<path d="M6.1363 9.87891H0.0118408V48.5955L6.14223 54.62L6.1363 9.87891Z" fill="white"/>
<path d="M9.61926 0.312012V6.36001H48.5813V48.5722H9.61926V54.6202H48.5813L54.6583 48.6312V0.312012H9.61926Z" fill="white"/>
<path d="M39.9513 14.9312V39.9779H14.8079V14.9312H39.9513ZM45.1103 9.79688H9.61926V45.1181H45.1103V9.79688Z" fill="white"/>
<path d="M5.04066 0.312043H6.14235V6.4072H0.00012207V5.30489C0.000896943 4.64745 0.131976 3.99662 0.385853 3.38967C0.639729 2.78272 1.01142 2.23157 1.47963 1.76779C1.94784 1.30401 2.50339 0.9367 3.11444 0.6869C3.7255 0.437101 4.38007 0.309717 5.04066 0.312043Z" fill="#05CA52"/>
<path d="M67.0612 0.294434H71.154V26.2313H67.0612V0.294434Z" fill="#05CA52"/>
<path d="M77.2312 7.44475V26.2195H73.547V0.294434H78.6823L82.8877 15.8094V0.294434H86.5304V26.2313H82.3309L77.2312 7.44475Z" fill="#05CA52"/>
<path d="M88.8048 6.51909C88.8048 4.42056 89.3379 2.80541 90.4041 1.68541C91.4702 0.565406 92.9925 -0.000488281 95.0181 -0.000488281C97.0438 -0.000488281 98.572 0.588985 99.6322 1.68541C100.692 2.78183 101.231 4.42056 101.231 6.51909V19.9945C101.231 22.093 100.698 23.7042 99.6322 24.8281C98.5661 25.9521 97.028 26.518 95.0181 26.5258C93.0122 26.5258 91.4742 25.9639 90.4041 24.8399C89.334 23.716 88.8009 22.1048 88.8048 20.0062V6.51909ZM92.8977 20.2538C92.8292 20.9655 93.0416 21.6758 93.49 22.2345C93.6923 22.4327 93.9334 22.5873 94.1983 22.6887C94.4633 22.7902 94.7464 22.8362 95.03 22.8239C95.3144 22.8356 95.5982 22.7893 95.8641 22.688C96.1299 22.5866 96.3721 22.4323 96.5759 22.2345C97.0243 21.6758 97.2367 20.9655 97.1682 20.2538V6.25972C97.2367 5.54801 97.0243 4.8377 96.5759 4.27909C96.3721 4.08127 96.1299 3.92696 95.8641 3.82559C95.5982 3.72423 95.3144 3.67796 95.03 3.68962C94.7464 3.67737 94.4633 3.72339 94.1983 3.82481C93.9334 3.92623 93.6923 4.08087 93.49 4.27909C93.0416 4.8377 92.8292 5.54801 92.8977 6.25972V20.2538Z" fill="#05CA52"/>
<path d="M117.241 0.294434L112.965 12.8856L117.544 26.2195H113.226L109.879 15.9626L106.491 26.2195H102.659L107.237 12.8856L102.955 0.294434H107.208L110.3 9.8498L113.451 0.294434H117.241Z" fill="#05CA52"/>
<path d="M73.0493 29.7325C75.1106 29.7325 76.6387 30.2748 77.6456 31.3595C78.6526 32.4441 79.1501 34.0416 79.1501 36.1401V39.4942C79.1501 41.5927 78.6486 43.1863 77.6456 44.2748C76.6387 45.3595 75.1106 45.9018 73.0493 45.9018H71.1125V55.6517H67.0197V29.7148L73.0493 29.7325ZM71.1125 33.4344V42.2117H73.0493C73.3196 42.2301 73.5907 42.1936 73.8463 42.1045C74.1019 42.0153 74.3366 41.8753 74.536 41.6929C74.9487 41.1392 75.1349 40.4504 75.0573 39.7654V35.8807C75.1349 35.1957 74.9487 34.5069 74.536 33.9532C74.3366 33.7708 74.1019 33.6308 73.8463 33.5416C73.5907 33.4525 73.3196 33.416 73.0493 33.4344H71.1125Z" fill="white"/>
<path d="M89.6459 55.6517C89.5985 55.4807 89.5452 55.3216 89.4978 55.1683C89.4402 54.9872 89.3966 54.802 89.3675 54.6142C89.3267 54.3329 89.303 54.0495 89.2964 53.7654C89.2964 53.4176 89.2964 52.9873 89.2964 52.4685V48.3953C89.2964 47.2163 89.0891 46.3321 88.6686 45.8369C88.4018 45.5726 88.0801 45.3696 87.726 45.2423C87.3719 45.115 86.9941 45.0665 86.6192 45.1001H85.2036V55.6517H81.087V29.7148H87.2648C89.3971 29.7148 90.9411 30.208 91.8967 31.1944C92.8522 32.1808 93.33 33.6741 93.33 35.6744V37.7258C93.33 40.3902 92.4376 42.1429 90.6528 42.9839C91.1336 43.1578 91.5724 43.4303 91.9408 43.7837C92.3091 44.137 92.5988 44.5634 92.791 45.0353C93.2082 46.1426 93.4093 47.319 93.3834 48.5014V52.498C93.3834 53.1405 93.413 53.6769 93.4603 54.1839C93.5131 54.6866 93.6388 55.179 93.8335 55.6458L89.6459 55.6517ZM85.1799 33.4344V41.3982H86.785C87.4308 41.4311 88.0652 41.2206 88.562 40.8087C88.9944 40.4138 89.2135 39.7005 89.2135 38.6631V36.0988C89.275 35.3843 89.0981 34.6695 88.71 34.0652C88.5142 33.8445 88.2691 33.6725 87.9945 33.563C87.7199 33.4535 87.4234 33.4094 87.1286 33.4344H85.1799Z" fill="white"/>
<path d="M95.6815 35.9576C95.6815 33.859 96.2145 32.2478 97.2807 31.1239C98.3469 30 99.879 29.438 101.877 29.438C103.883 29.438 105.421 29.998 106.491 31.118C107.561 32.238 108.094 33.8492 108.09 35.9517V49.4329C108.09 51.5315 107.557 53.1427 106.491 54.2666C105.425 55.3905 103.887 55.9506 101.877 55.9466C99.8671 55.9466 98.3291 55.3866 97.2629 54.2666C96.1968 53.1466 95.6637 51.5354 95.6637 49.4329L95.6815 35.9576ZM99.7743 49.6982C99.7058 50.4099 99.9182 51.1202 100.367 51.6788C100.797 52.0473 101.345 52.2499 101.913 52.2499C102.48 52.2499 103.028 52.0473 103.458 51.6788C103.907 51.1202 104.119 50.4099 104.051 49.6982V35.6923C104.119 34.9806 103.907 34.2703 103.458 33.7117C103.028 33.3432 102.48 33.1406 101.913 33.1406C101.345 33.1406 100.797 33.3432 100.367 33.7117C99.9182 34.2703 99.7058 34.9806 99.7743 35.6923V49.6982Z" fill="white"/>
<path d="M114.493 41.2626H119.777V44.9704H114.493V55.6517H110.401V29.7148H121.228V33.4167H114.493V41.2626Z" fill="white"/>
<path d="M123.129 29.7324H127.222V55.6693H123.129V29.7324Z" fill="white"/>
<path d="M129.633 29.7324H133.726V51.9497H140.46V55.6516H129.633V29.7324Z" fill="white"/>
<path d="M146.46 40.6732H152.075V44.3751H146.46V51.9498H153.526V55.6517H142.367V29.7148H153.526V33.4167H146.46V40.6732Z" fill="white"/>
</svg>
